<svg width="986" height="176" viewBox="0 0 986 176" fill="none" xmlns="http://www.w3.org/2000/svg">
<path d="M0.960938 141H29.4766V81.0391C29.4766 67.3672 37.582 57.7969 50.1797 57.7969C63.168 57.7969 70.3945 66.4883 70.3945 81.1367V141H98.9102V75.2773C98.9102 49.9844 84.8477 34.1641 62.1914 34.1641C46.4688 34.1641 35.4336 41.3906 30.0625 54.3789H29.4766V0.0820312H0.960938V141ZM133.09 175.473C156.332 175.473 170.395 167.562 178.598 142.855L214.535 36.3125H184.457L162.289 118.148H161.508L139.438 36.3125H108.09L145.102 141L143.832 144.418C141.293 151.547 136.605 153.988 128.109 153.988C123.91 153.988 120.59 153.402 118.539 153.012V174.203C121.859 174.789 127.523 175.473 133.09 175.473ZM224.496 141H253.012V77.8164C253.012 66 260.336 57.7969 271.176 57.7969C281.723 57.7969 288.07 64.4375 288.07 75.668V141H315.512V77.3281C315.512 65.707 322.641 57.7969 333.48 57.7969C344.516 57.7969 350.57 64.4375 350.57 76.5469V141H379.086V69.418C379.086 48.3242 365.316 34.1641 344.809 34.1641C329.477 34.1641 316.977 42.5625 312.289 55.7461H311.703C308.188 41.9766 297.543 34.1641 282.895 34.1641C268.832 34.1641 257.895 41.9766 253.598 53.8906H253.012V36.3125H224.496V141ZM397.152 141H425.668V80.8438C425.668 67.1719 433.773 57.7969 446.566 57.7969C459.359 57.7969 465.805 65.6094 465.805 79.2812V141H494.32V73.4219C494.32 48.9102 481.234 34.1641 458.188 34.1641C442.367 34.1641 431.625 41.4883 426.254 53.5H425.668V36.3125H397.152V141ZM549.105 142.855C571.371 142.855 587.484 130.648 587.484 113.363V113.266C587.484 99.0078 579.77 91.0977 559.555 86.2148L544.223 82.6016C530.844 79.3789 525.375 74.2031 525.375 66.0977V66C525.375 55.6484 534.555 48.5195 548.324 48.5195C562.484 48.5195 571.469 56.2344 573.129 68.0508L573.227 68.7344H585.629L585.531 67.6602C583.871 50.1797 570.004 37.582 548.324 37.582C527.133 37.582 512.191 49.5938 512.191 66.4883V66.5859C512.191 80.6484 521.371 89.0469 540.512 93.6367L555.844 97.3477C569.418 100.57 574.301 105.355 574.301 114.145V114.242C574.301 124.887 564.535 131.918 549.203 131.918C533.871 131.918 524.398 124.301 522.348 112.582L522.152 111.703H509.262L509.359 112.582C511.312 130.551 526.059 142.855 549.105 142.855ZM645.98 142.855C667.953 142.855 684.164 130.258 687.68 112.875L687.875 111.898H675.082L674.887 112.777C671.566 123.812 661.215 131.332 646.273 131.332C626.254 131.332 613.266 117.562 612.875 93.3438H689.145V88.2656C689.145 57.8945 672.055 37.582 644.906 37.582C617.758 37.582 599.789 58.5781 599.789 90.4141V90.5117C599.789 122.641 617.465 142.855 645.98 142.855ZM644.809 49.1055C662.191 49.1055 674.691 60.9219 676.156 83.0898H613.07C614.633 61.5078 627.523 49.1055 644.809 49.1055ZM706.43 141H719.32V80.8438C719.32 61.8984 731.137 49.2031 748.812 49.2031C766.098 49.2031 775.473 59.2617 775.473 78.1094V141H788.363V75.9609C788.363 52.1328 775.082 37.6797 752.621 37.6797C736.215 37.6797 724.789 45.7852 719.711 56.7227H719.32V39.4375H706.43V141ZM845.004 142.855C867.27 142.855 883.383 130.648 883.383 113.363V113.266C883.383 99.0078 875.668 91.0977 855.453 86.2148L840.121 82.6016C826.742 79.3789 821.273 74.2031 821.273 66.0977V66C821.273 55.6484 830.453 48.5195 844.223 48.5195C858.383 48.5195 867.367 56.2344 869.027 68.0508L869.125 68.7344H881.527L881.43 67.6602C879.77 50.1797 865.902 37.582 844.223 37.582C823.031 37.582 808.09 49.5938 808.09 66.4883V66.5859C808.09 80.6484 817.27 89.0469 836.41 93.6367L851.742 97.3477C865.316 100.57 870.199 105.355 870.199 114.145V114.242C870.199 124.887 860.434 131.918 845.102 131.918C829.77 131.918 820.297 124.301 818.246 112.582L818.051 111.703H805.16L805.258 112.582C807.211 130.551 821.957 142.855 845.004 142.855ZM941.879 142.855C963.852 142.855 980.062 130.258 983.578 112.875L983.773 111.898H970.98L970.785 112.777C967.465 123.812 957.113 131.332 942.172 131.332C922.152 131.332 909.164 117.562 908.773 93.3438H985.043V88.2656C985.043 57.8945 967.953 37.582 940.805 37.582C913.656 37.582 895.688 58.5781 895.688 90.4141V90.5117C895.688 122.641 913.363 142.855 941.879 142.855ZM940.707 49.1055C958.09 49.1055 970.59 60.9219 972.055 83.0898H908.969C910.531 61.5078 923.422 49.1055 940.707 49.1055Z" fill="black"/>
</svg>
